/* XPM */
static char * users\nick\projects\hc\logo1_32x32x32_xpm[] = {
"32 32 804 2",
"  	c #00f6f6",
". 	c #00f2f4",
"X 	c #00e8ed",
"o 	c #02e0e5",
"O 	c #03d9df",
"+ 	c #00d2e2",
"@ 	c #00cade",
"# 	c #02c0cd",
"$ 	c #10b8bd",
"% 	c #13b1b7",
"& 	c #07a9b6",
"* 	c #009fba",
"= 	c #0097b6",
"- 	c #0191aa",
"; 	c #028ba2",
": 	c #00819d",
"> 	c #007a97",
", 	c #007290",
"< 	c #006a8a",
"1 	c #006284",
"2 	c #005a7e",
"3 	c #005278",
"4 	c #004a72",
"5 	c #00426c",
"6 	c #003b65",
"7 	c #00335e",
"8 	c #002b58",
"9 	c #012353",
"0 	c #011c4d",
"q 	c #001347",
"w 	c #000a40",
"e 	c #000339",
"r 	c #00f8f9",
"t 	c #00f4f7",
"y 	c #02ebee",
"u 	c #02e4ed",
"i 	c #00dbea",
"p 	c #39ccb8",
"a 	c #94c481",
"s 	c #c6c365",
"d 	c #d7c55c",
"f 	c #d5c55b",
"g 	c #c4c362",
"h 	c #9bbb72",
"j 	c #50a98d",
"k 	c #0892a9",
"l 	c #0088aa",
"z 	c #02849f",
"x 	c #007b9a",
"c 	c #007393",
"v 	c #006b8d",
"b 	c #006387",
"n 	c #005b81",
"m 	c #00537b",
"M 	c #004b75",
"N 	c #00436f",
"B 	c #003b69",
"V 	c #003362",
"C 	c #002b5c",
"Z 	c #022154",
"A 	c #02184e",
"S 	c #00134a",
"D 	c #000b44",
"F 	c #00033d",
"G 	c #02f3f4",
"H 	c #00edf6",
"J 	c #14dfde",
"K 	c #abc677",
"L 	c #ffc245",
"P 	c #ffc646",
"I 	c #f9c84d",
"U 	c #f0c951",
"Y 	c #eaca53",
"T 	c #e8cb54",
"R 	c #eacc53",
"E 	c #e8cc52",
"W 	c #b7c062",
"Q 	c #349791",
"! 	c #007fa4",
"~ 	c #027c99",
"^ 	c #042e5d",
"/ 	c #28456d",
"( 	c #283e68",
") 	c #04174b",
"_ 	c #01f8f8",
"` 	c #00f5fb",
"' 	c #1ae5e0",
"] 	c #d7c25c",
"[ 	c #ffc240",
"{ 	c #f3c651",
"} 	c #edc753",
"| 	c #eac854",
" .	c #e7c955",
"..	c #e2ca57",
"X.	c #ddca59",
"o.	c #d7c95a",
"O.	c #d1c85c",
"+.	c #d9cb59",
"@.	c #d3c958",
"#.	c #439686",
"$.	c #00779e",
"%.	c #027492",
"&.	c #003c69",
"*.	c #003462",
"=.	c #052e5d",
"-.	c #73859e",
";.	c #727f99",
":.	c #05184b",
">.	c #000c44",
",.	c #00043d",
"<.	c #00f9f9",
"1.	c #00f3f8",
"2.	c #bfc76c",
"3.	c #ffc03f",
"4.	c #f2c651",
"5.	c #f3c750",
"6.	c #efc852",
"7.	c #eac954",
"8.	c #e5ca56",
"9.	c #e1ca58",
"0.	c #dcca59",
"q.	c #d7ca5a",
"w.	c #d3ca5b",
"e.	c #cbc85d",
"r.	c #ccc95c",
"t.	c #c6c55b",
"y.	c #24858d",
"u.	c #007196",
"i.	c #026c8d",
"p.	c #032e5d",
"a.	c #163461",
"s.	c #152d5c",
"d.	c #04174c",
"f.	c #00fcfe",
"g.	c #5bdeb5",
"h.	c #ffbc3b",
"j.	c #f6c550",
"k.	c #f6c64f",
"l.	c #f1c851",
"z.	c #ecc954",
"x.	c #e8ca55",
"c.	c #e3cb57",
"v.	c #decb59",
"b.	c #dacb5a",
"n.	c #d5cb5b",
"m.	c #d0ca5c",
"M.	c #ccc95d",
"N.	c #c3c65e",
"B.	c #cecb5b",
"V.	c #89ac6c",
"C.	c #006f96",
"Z.	c #012255",
"A.	c #01184d",
"S.	c #000a43",
"D.	c #00f9fe",
"F.	c #b5cc76",
"G.	c #ffc041",
"H.	c #f5c650",
"J.	c #eec953",
"K.	c #eaca55",
"L.	c #e5cb57",
"P.	c #e1cb59",
"I.	c #dccc5a",
"U.	c #d7cb5b",
"Y.	c #d3cb5c",
"T.	c #ceca5d",
"R.	c #c9c95e",
"E.	c #c4c75e",
"W.	c #c0c65f",
"Q.	c #b9c25e",
"!.	c #1a7c8a",
"~.	c #00698f",
"^.	c #016487",
"/.	c #003463",
"(.	c #012c5d",
").	c #002255",
"_.	c #0f2858",
"`.	c #39476e",
"'.	c #0b164a",
"].	c #00023c",
"[.	c #0bf3ee",
"{.	c #dfc55b",
"}.	c #ffc348",
"|.	c #f4c650",
" X	c #f1c852",
".X	c #ecca54",
"XX	c #e7cb56",
"oX	c #e3cc58",
"OX	c #decc5a",
"+X	c #d9cc5b",
"@X	c #d5cc5c",
"#X	c #d0cb5d",
"$X	c #ccca5e",
"%X	c #c7c95f",
"&X	c #c2c75f",
"*X	c #bbc460",
"=X	c #c3c75c",
"-X	c #3a8980",
";X	c #006791",
":X	c #026486",
">X	c #003161",
",X	c #012a5b",
"<X	c #002154",
"1X	c #19305e",
"2X	c #636d8a",
"3X	c #121c4f",
"4X	c #00013b",
"5X	c #14f1e7",
"6X	c #e7c556",
"7X	c #fdc44b",
"8X	c #f2c751",
"9X	c #eacb55",
"0X	c #e5cc57",
"qX	c #e0cc59",
"wX	c #dccd5b",
"eX	c #d7cd5c",
"rX	c #d2cc5e",
"tX	c #cecc5e",
"yX	c #c9cb5f",
"uX	c #c4c960",
"iX	c #c0c760",
"pX	c #b9c461",
"aX	c #c2c75c",
"sX	c #448e7d",
"dX	c #006691",
"fX	c #036486",
"gX	c #013c68",
"hX	c #15426b",
"jX	c #113864",
"kX	c #002356",
"lX	c #011b50",
"zX	c #021046",
"xX	c #010b44",
"cX	c #08f4f1",
"vX	c #d8c860",
"bX	c #fdc54b",
"nX	c #efc953",
"mX	c #ecca55",
"MX	c #e7cc57",
"NX	c #e3cd59",
"BX	c #decd5b",
"VX	c #d9cd5c",
"CX	c #d5cd5d",
"ZX	c #d0cd5f",
"AX	c #cbcc60",
"SX	c #c7cb60",
"DX	c #c2c961",
"FX	c #bdc761",
"GX	c #b7c462",
"HX	c #bdc65e",
"JX	c #348781",
"KX	c #004c75",
"LX	c #00446f",
"PX	c #003a66",
"IX	c #6a859d",
"UX	c #4e6988",
"YX	c #001f52",
"TX	c #011c51",
"RX	c #01144b",
"EX	c #00fafe",
"WX	c #a7d281",
"QX	c #ffc546",
"!X	c #ebcb56",
"~X	c #eacb56",
"^X	c #e5cd58",
"/X	c #e0ce5a",
"(X	c #dcce5c",
")X	c #d7ce5d",
"_X	c #d2ce5f",
"`X	c #cecd60",
"'X	c #c9cc61",
"]X	c #c4cb61",
"[X	c #c0c962",
"{X	c #bbc762",
"}X	c #b8c662",
"|X	c #acbf62",
" o	c #12798c",
".o	c #006a8f",
"Xo	c #013c69",
"oo	c #17446d",
"Oo	c #123864",
"+o	c #002355",
"@o	c #001b50",
"#o	c #00144a",
"$o	c #00fbfe",
"%o	c #47e4c4",
"&o	c #ffc547",
"*o	c #e8cc58",
"=o	c #e2cd59",
"-o	c #dece5c",
";o	c #d9cf5d",
":o	c #d5cf5f",
">o	c #d0ce60",
",o	c #cbce61",
"<o	c #c7cd62",
"1o	c #c2cb62",
"2o	c #bec962",
"3o	c #b4c564",
"4o	c #c1cb5f",
"5o	c #72a673",
"6o	c #006f97",
"7o	c #002a5b",
"8o	c #02f8f8",
"9o	c #00f4fd",
"0o	c #9dd185",
"qo	c #feca49",
"wo	c #dece5d",
"eo	c #dfce5b",
"ro	c #dccf5d",
"to	c #d7cf5e",
"yo	c #d2cf60",
"uo	c #cdcf61",
"io	c #c9ce62",
"po	c #c4cd63",
"ao	c #bfcb63",
"so	c #b7c865",
"do	c #bdca62",
"fo	c #a7bf65",
"go	c #148093",
"ho	c #007295",
"jo	c #016c8d",
"ko	c #026488",
"lo	c #035d82",
"zo	c #03557c",
"xo	c #034d76",
"co	c #01446f",
"vo	c #013463",
"bo	c #002c5d",
"no	c #00f5f8",
"mo	c #09e8eb",
"Mo	c #aacf7a",
"No	c #f7cd4e",
"Bo	c #dfd05c",
"Vo	c #d5d060",
"Co	c #d2d061",
"Zo	c #ced062",
"Ao	c #c9cf63",
"So	c #c4ce64",
"Do	c #bfcc65",
"Fo	c #bbcb65",
"Go	c #c4ce60",
"Ho	c #adc365",
"Jo	c #288e90",
"Ko	c #00789d",
"Lo	c #057694",
"Po	c #016b8e",
"Io	c #005f83",
"Uo	c #00547b",
"Yo	c #004b74",
"To	c #00456f",
"Ro	c #00406c",
"Eo	c #023563",
"Wo	c #01f3f5",
"Qo	c #01ecf3",
"!o	c #05e2ea",
"~o	c #73d098",
"^o	c #d7ce5f",
"/o	c #e6d157",
"(o	c #ded25b",
")o	c #d6d25f",
"_o	c #d0d160",
"`o	c #ced160",
"'o	c #cdd05f",
"]o	c #c2cd62",
"[o	c #85b875",
"{o	c #19909b",
"}o	c #0081a4",
"|o	c #047d99",
" O	c #006c8d",
".O	c #046a8c",
"XO	c #287798",
"oO	c #4781a1",
"OO	c #4c7e9f",
"+O	c #396d91",
"@O	c #18527b",
"#O	c #013865",
"$O	c #002d5e",
"%O	c #012456",
"&O	c #01ebee",
"*O	c #02e4ea",
"=O	c #00dcec",
"-O	c #19d0cc",
";O	c #61ca9d",
":O	c #92ca80",
">O	c #a5ca74",
",O	c #a5c972",
"<O	c #92c478",
"1O	c #6ab887",
"2O	c #2ba49e",
"3O	c #0090ae",
"4O	c #028aa9",
"5O	c #03839e",
"6O	c #007795",
"7O	c #5a9bb6",
"8O	c #c0c7de",
"9O	c #dcd4ea",
"0O	c #d9d2e8",
"qO	c #ccc9e1",
"wO	c #bcbed7",
"eO	c #a4acc8",
"rO	c #768aab",
"tO	c #2d527c",
"yO	c #002759",
"uO	c #001c51",
"iO	c #00f4f6",
"pO	c #00ebf0",
"aO	c #01e3e9",
"sO	c #03dbe1",
"dO	c #00d4e1",
"fO	c #00cbe0",
"gO	c #00c1d6",
"hO	c #00b9cb",
"jO	c #00b2c4",
"kO	c #00a9c1",
"lO	c #00a0be",
"zO	c #0099b6",
"xO	c #0294ac",
"cO	c #018ba5",
"vO	c #08829f",
"bO	c #a6bfd6",
"nO	c #ffe6fa",
"mO	c #e6dbf1",
"MO	c #d0cfe6",
"NO	c #c1c5dd",
"BO	c #b3bbd5",
"VO	c #a7b1cd",
"CO	c #9da8c5",
"ZO	c #96a1bf",
"AO	c #8c96b6",
"SO	c #50668c",
"DO	c #062557",
"FO	c #001a4f",
"GO	c #01144a",
"HO	c #00ebef",
"JO	c #00e3e9",
"KO	c #00dbe3",
"LO	c #01d3dc",
"PO	c #03cbd5",
"IO	c #02c3d0",
"UO	c #00bbcb",
"YO	c #00b3c5",
"TO	c #01acbe",
"RO	c #03a4b7",
"EO	c #029cb1",
"WO	c #0294ad",
"QO	c #0086a1",
"!O	c #a3c1d7",
"~O	c #ffeafe",
"^O	c #dcd7ed",
"/O	c #d2d1e8",
"(O	c #c8cae2",
")O	c #bbc2da",
"_O	c #aeb8d2",
"`O	c #a1aeca",
"'O	c #93a2c0",
"]O	c #8595b5",
"[O	c #7787aa",
"{O	c #7682a6",
"}O	c #4c5d86",
"|O	c #031c50",
" +	c #001349",
".+	c #00d3dd",
"X+	c #00cbd7",
"o+	c #00c3d1",
"O+	c #00abbf",
"++	c #00a3b8",
"@+	c #039cb3",
"#+	c #008ea7",
"$+	c #51a6be",
"%+	c #ffe8fc",
"&+	c #e2dbf0",
"*+	c #d9d6ec",
"=+	c #cccee5",
"-+	c #bfc6de",
";+	c #b2bdd6",
":+	c #a6b3ce",
">+	c #98a8c5",
",+	c #8b9dbb",
"<+	c #7e90b1",
"1+	c #7183a6",
"2+	c #627399",
"3+	c #5e6c93",
"4+	c #30416e",
"5+	c #001047",
"6+	c #010c44",
"7+	c #00e3ea",
"8+	c #00d2dc",
"9+	c #00bbca",
"0+	c #00abbe",
"q+	c #00a3b9",
"w+	c #029cb3",
"e+	c #008ea8",
"r+	c #b4cbe0",
"t+	c #f8e4f9",
"y+	c #dbd8ed",
"u+	c #d1d2e8",
"i+	c #c4cae2",
"p+	c #b7c2da",
"a+	c #aab8d2",
"s+	c #9daeca",
"d+	c #90a3c1",
"f+	c #8397b7",
"g+	c #768bac",
"h+	c #697da1",
"j+	c #5b6f95",
"k+	c #4e5f89",
"l+	c #44517d",
"z+	c #0d1d51",
"x+	c #000942",
"c+	c #01043d",
"v+	c #00dde5",
"b+	c #00d7e1",
"n+	c #00cdd9",
"m+	c #00c4d2",
"M+	c #00bece",
"N+	c #00aec2",
"B+	c #01a3b8",
"V+	c #009ab1",
"C+	c #1097af",
"Z+	c #ddd9ee",
"A+	c #e7def3",
"S+	c #d4d5eb",
"D+	c #c8cee5",
"F+	c #bbc6de",
"G+	c #aebdd6",
"H+	c #a1b4ce",
"J+	c #94a9c5",
"K+	c #879ebc",
"L+	c #7a92b2",
"P+	c #6d85a7",
"I+	c #60779c",
"U+	c #536990",
"Y+	c #465983",
"T+	c #3c4b78",
"R+	c #1d2b5c",
"E+	c #000941",
"W+	c #00e8ef",
"Q+	c #00c7ce",
"!+	c #00a8b0",
"~+	c #00a3ac",
"^+	c #00a8b5",
"/+	c #008b97",
"(+	c #00a6b7",
")+	c #007987",
"_+	c #02a3b8",
"`+	c #0099b0",
"'+	c #209cb4",
"]+	c #e3dcf0",
"[+	c #dbd9ef",
"{+	c #ccd2e8",
"}+	c #c0cae1",
"|+	c #b3c2da",
" @	c #a6b9d2",
".@	c #99afca",
"X@	c #8ca4c1",
"o@	c #7f99b8",
"O@	c #728cad",
"+@	c #647fa2",
"@@	c #587197",
"#@	c #4b628b",
"$@	c #3d527e",
"%@	c #324372",
"&@	c #1f2c5e",
"*@	c #000b43",
"=@	c #00ecf3",
"-@	c #00aab0",
";@	c #00a6ae",
":@	c #009199",
">@	c #00b1be",
",@	c #007e89",
"<@	c #00aaba",
"1@	c #006f7c",
"2@	c #01b2c9",
"3@	c #1899b1",
"4@	c #d6d7ec",
"5@	c #d4d6ec",
"6@	c #c4cee4",
"7@	c #b7c6de",
"8@	c #aabed7",
"9@	c #9eb5cf",
"0@	c #90aac6",
"q@	c #839fbd",
"w@	c #7693b3",
"e@	c #6987a8",
"r@	c #5c799e",
"t@	c #4f6b92",
"y@	c #425c86",
"u@	c #354c78",
"i@	c #293c6b",
"p@	c #19285a",
"a@	c #00f8f8",
"s@	c #00f7f9",
"d@	c #00dde1",
"f@	c #009296",
"g@	c #005c5f",
"h@	c #007176",
"j@	c #00595e",
"k@	c #00747c",
"l@	c #005e67",
"z@	c #00727d",
"x@	c #00626d",
"c@	c #0090a2",
"v@	c #0097ad",
"b@	c #0293ac",
"n@	c #b5cae0",
"m@	c #d0d5ea",
"M@	c #bacae1",
"N@	c #afc2da",
"B@	c #a2bad3",
"V@	c #95b0cb",
"C@	c #88a6c2",
"Z@	c #7b9bb9",
"A@	c #6e8eaf",
"S@	c #6181a4",
"D@	c #537499",
"F@	c #47658d",
"G@	c #3a5680",
"H@	c #2d4573",
"J@	c #203566",
"K@	c #112155",
"L@	c #00f3f6",
"P@	c #00e4ea",
"I@	c #008b90",
"U@	c #00838b",
"Y@	c #00868f",
"T@	c #007c87",
"R@	c #00656f",
"E@	c #006b78",
"W@	c #007584",
"Q@	c #0394aa",
"!@	c #0090a9",
"~@	c #73b2c9",
"^@	c #d0d4ea",
"/@	c #afc6dd",
"(@	c #a7bfd7",
")@	c #99b6cf",
"_@	c #8cacc7",
"`@	c #7fa1be",
"'@	c #7296b4",
"]@	c #6589aa",
"[@	c #587c9f",
"{@	c #4b6e94",
"}@	c #3e5f88",
"|@	c #31507b",
" #	c #243f6d",
".#	c #172e60",
"X#	c #081a4f",
"o#	c #00eff4",
"O#	c #00cfd4",
"+#	c #009197",
"@#	c #00a5ad",
"##	c #00a3ad",
"$#	c #008a94",
"%#	c #00acbb",
"&#	c #007580",
"*#	c #00aec5",
"=#	c #019db4",
"-#	c #0091aa",
";#	c #1b92ac",
":#	c #b4c8df",
">#	c #acc4dc",
",#	c #9dbad3",
"<#	c #91b2cc",
"1#	c #84a7c3",
"2#	c #779cba",
"3#	c #6a91b0",
"4#	c #5c84a6",
"5#	c #50769b",
"6#	c #43688f",
"7#	c #365983",
"8#	c #284976",
"9#	c #1c3968",
"0#	c #0e275a",
"q#	c #02144a",
"w#	c #00edf2",
"e#	c #00d8de",
"r#	c #00c4cc",
"t#	c #00c6cf",
"y#	c #00c1cd",
"u#	c #00b6c5",
"i#	c #00a0b0",
"p#	c #00aabd",
"a#	c #00a1b6",
"s#	c #009bb2",
"d#	c #0087a2",
"f#	c #499cb6",
"g#	c #b0c5dc",
"h#	c #94b7d0",
"j#	c #87adc7",
"k#	c #7ba3bf",
"l#	c #6e97b6",
"z#	c #618cac",
"x#	c #547fa1",
"c#	c #477196",
"v#	c #3a638a",
"b#	c #2d537d",
"n#	c #204370",
"m#	c #133263",
"M#	c #061f52",
"N#	c #00eaef",
"B#	c #00e5ec",
"V#	c #00e0e8",
"C#	c #00d6e0",
"Z#	c #00c7d5",
"A#	c #00bccc",
"S#	c #00b7c9",
"D#	c #0093ac",
"F#	c #028ca7",
"G#	c #007f9c",
"H#	c #4b98b3",
"J#	c #96b7d0",
"K#	c #83abc6",
"L#	c #719dbb",
"P#	c #6492b1",
"I#	c #5886a7",
"U#	c #4b799d",
"Y#	c #3e6b91",
"T#	c #315c85",
"R#	c #254d78",
"E#	c #183d6c",
"W#	c #0a2b5c",
"Q#	c #001b4f",
"!#	c #00dae2",
"~#	c #00c2d0",
"^#	c #008ba6",
"/#	c #0284a0",
"(#	c #007796",
")#	c #2a84a2",
"_#	c #6a9db9",
"`#	c #719dba",
"'#	c #6291b0",
"]#	c #5384a5",
"[#	c #457699",
"{#	c #38678e",
"}#	c #2b5881",
"|#	c #1d4874",
" $	c #0d3463",
".$	c #012355",
"X$	c #00eaf0",
"o$	c #00e2e9",
"O$	c #00dae3",
"+$	c #00d2dd",
"@$	c #0083a0",
"#$	c #027c9a",
"$$	c #006f90",
"%$	c #056b8d",
"&$	c #247495",
"*$	c #3a799a",
"=$	c #3c7597",
"-$	c #33698e",
";$	c #265b82",
":$	c #164974",
">$	c #073765",
",$	c #00fbfb",
"<$	c #00f7f8",
"1$	c #00eef1",
"2$	c #00e6eb",
"3$	c #00dee5",
"4$	c #00d6df",
"5$	c #00ced9",
"6$	c #00c5d3",
"7$	c #00bdcd",
"8$	c #00b5c7",
"9$	c #00adc1",
"0$	c #00a5ba",
"q$	c #009db4",
"w$	c #0095ae",
"e$	c #008da7",
"r$	c #0085a1",
"t$	c #007d9b",
"y$	c #027595",
"u$	c #016c8f",
"i$	c #006186",
"p$	c #00597f",
"a$	c #00436e",
"s$	c #003a68",
"d$	c #002457",
"f$	c #00e8ec",
"g$	c #00e4e9",
"h$	c #00dce4",
"j$	c #00d5dd",
"k$	c #00cdd8",
"l$	c #00c6d2",
"z$	c #00becc",
"x$	c #00b7c7",
"c$	c #00afc1",
"v$	c #00a8bb",
"b$	c #00a0b6",
"n$	c #0099af",
"m$	c #008aa4",
"M$	c #00829e",
"N$	c #007b99",
"B$	c #006487",
"V$	c #025e82",
"C$	c #01567c",
"Z$	c #004e76",
"A$	c #004671",
"S$	c #003f6b",
"D$	c #00305f",
"F$	c #002859",
"G$	c #00194e",
"H$	c #001248",
"J$	c #000a42",
"K$	c #00033c",
"  . X o O + @ # $ % & * = - ; : > , < 1 2 3 4 5 6 7 8 9 0 q w e ",
"r t y u i p a s d f g h j k l z x c v b n m M N B V C Z A S D F ",
"r G H J K L P I U Y T R E W Q ! ~ c v b n m M N B V ^ / ( ) D F ",
"_ ` ' ] [ { } |  ...X.o.O.+.@.#.$.%.v b n m M N &.*.=.-.;.:.>.,.",
"<.1.2.3.4.5.6.7.8.9.0.q.w.e.r.t.y.u.i.b n m M N B V p.a.s.d.D F ",
"f.g.h.j.k.l.z.x.c.v.b.n.m.M.N.B.V.C.i.b n m M N B V C Z.A.>.S.F ",
"D.F.G.H.5.J.K.L.P.I.U.Y.T.R.E.W.Q.!.~.^.n m M N B /.(.)._.`.'.].",
"[.{.}.|. X.XXXoXOX+X@X#X$X%X&X*X=X-X;X:Xn m M N B >X,X<X1X2X3X4X",
"5X6X7X8XJ.9X0XqXwXeXrXtXyXuXiXpXaXsXdXfXn m M N gXhXjXkXlXzXxXF ",
"cXvXbXnXmXMXNXBXVXCXZXAXSXDXFXGXHXJX;X:Xn m KXLXPXIXUXYXTXRXD F ",
"EXWXQX!X~X^X/X(X)X_X`X'X]X[X{X}X|X o.o^.n m M N XoooOo+o@o#oD F ",
"$o%o&o*oMX=o-o;o:o>o,o<o1o2o3o4o5o6oi.b n m M N B >X7okX@oS D F ",
"8o9o0oqowoeorotoyouoiopoaosodofogohojokolozoxocoB vobokX@oS D F ",
"_ nomoMoNoBoVoCoZoAoSoDoFoGoHoJoKoLoPoIoUoYoToRoXoEoC kX@oS D F ",
"r WoQo!o~o^o/o(o)o_o`o'o]o[o{o}o|o O.OXOoOOO+O@O#O$O(.%O@oS D F ",
"r t &O*O=O-O;O:O>O,O<O1O2O3O4O5O6O7O8O9O0OqOwOeOrOtOyOZ.uOS D F ",
"r iOpOaOsOdOfOgOhOjOkOlOzOxOcOvObOnOmOMONOBOVOCOZOAOSODOFOGOD F ",
"r iOHOJOKOLOPOIOUOYOTOROEOWOQO!O~O^O/O(O)O_O`O'O]O[O{O}O|O +D F ",
"r iOpOJOKO.+X+o+UOYOO+++@+#+$+%+&+*+=+-+;+:+>+,+<+1+2+3+4+5+6+F ",
"r iOHO7+KO8+X+o+9+YO0+q+w+e+r+t+y+u+i+p+a+s+d+f+g+h+j+k+l+z+x+c+",
"r iOpOJOv+b+n+m+M+YON+B+V+C+Z+A+S+D+F+G+H+J+K+L+P+I+U+Y+T+R+E+c+",
"r iOHOW+Q+!+~+^+/+(+)+_+`+'+]+[+{+}+|+ @.@X@o@O@+@@@#@$@%@&@*@F ",
"r iOX =@-@;@:@>@,@<@1@2@`+3@4@5@6@7@8@9@0@q@w@e@r@t@y@u@i@p@6+F ",
"a@s@d@f@g@h@j@k@l@z@x@c@v@b@n@m@M@N@B@V@C@Z@A@S@D@F@G@H@J@K@*@F ",
"r L@HOP@I@;@U@Y@T@R@E@W@Q@!@~@^@/@(@)@_@`@'@]@[@{@}@|@ #.#X#*@F ",
"r L@o#O#+#@###$#%#&#O+*#=#-#;#:#>#,#<#1#2#3#4#5#6#7#8#9#0#q#D F ",
"r L@w#e#r#t#y#>@u#i#p#a#s#WOd#f#g#h#j#k#l#z#x#c#v#b#n#m#M# +D F ",
"r iON#B#V#C#n+Z#A#S#0+q+s#D#F#G#H#J#K#L#P#I#U#Y#T#R#E#W#Q#S D F ",
"r iOpOJO!#.+X+~#UOjOO+++s#D#^#/#(#)#_#`#'#]#[#{#}#|# $.$@oS D F ",
"s@L@X$o$O$+$X+o+UOYOO+++s#D#^#@$#$$$%$&$*$=$-$;$:$>$7okX@oS D F ",
",$<$1$2$3$4$5$6$7$8$9$0$q$w$e$r$t$y$u$i$p$m KXa$s$V bod$@oS D F ",
"f$g$h$j$k$l$z$x$c$v$b$n$-#m$M$N$c  OB$V$C$Z$A$S$#OD$F$<XG$H$J$K$"};
